            @@                       @@     @@
           @@@                      @@@    @@@
          @@@@@@  @@@@@    @@@@@   @@@@@@ @@@        @@@@@    @@@@@
          @@@@@  @@@@@@@  @@@ @@@  @@@@@  @@@       @@@ @@@  @@@@@@@
           @@@   @@@  !@ @@@   @@@  @@@   @@@@@@   @@@   @@@ @@@  !@
           @@@   @@@     @@@   @@@  @@@   @@@@@@@  @@@   @@@ @@@
           @!@   @!@     @!@   @!@  @!@   @!@  @!@ @!@@ @!@  @!@
           !!@   !!@     !!@   !!@  !!@   !!@  !!@ !!@@      !!@
            :!:   :!:     :!: :!:    :!:  :!:  :!:  :!:! :!   :!:
             ::    ::      ::::       ::   ::  :::   ::::      ::
                                               :::
                     ~Metal Tornado 2011 [DVDRIP]-trother~   
                                           :::
                                          :::



*******************************************************************************
IMDb:                http://www.imdb.com/title/tt1688653/    
*******************************************************************************



          RELEASE.: Metal Tornado [2011]
          SOURCE..: DVD9 PAL
          DATE....: 21/10/2011
          GENRE...: Action



General
Complete name                    : G:\MainMovie\METAL_TORNADO\METAL_TORNADO-1.m4v
Format                           : MPEG-4
Format profile                   : Base Media / Version 2
Codec ID                         : mp42
File size                        : 1.35 GiB
Duration                         : 1h 26mn
Overall bit rate                 : 2 235 Kbps
Encoded date                     : UTC 2011-10-21 16:28:40
Tagged date                      : UTC 2011-10-22 02:11:19
Writing application              : HandBrake 0.9.5 2011010300

Video
ID                               : 1
Format                           : AVC
Format/Info                      : Advanced Video Codec
Format profile                   : High@L3.0
Format settings, CABAC           : Yes
Format settings, ReFrames        : 4 frames
Format settings, GOP             : M=4, N=49
Codec ID                         : avc1
Codec ID/Info                    : Advanced Video Coding
Duration                         : 1h 26mn
Bit rate mode                    : Variable
Bit rate                         : 2 070 Kbps
Width                            : 720 pixels
Height                           : 400 pixels
Display aspect ratio             : 16:9
Frame rate mode                  : Constant
Frame rate                       : 25.000 fps
Color space                      : YUV
Chroma subsampling               : 4:2:0
Bit depth                        : 8 bits
Scan type                        : Progressive
Bits/(Pixel*Frame)               : 0.288
Stream size                      : 1.25 GiB (93%)
Writing library                  : x264 core 112


Audio
ID                               : 2
Format                           : AAC
Format/Info                      : Advanced Audio Codec
Format profile                   : LC
Codec ID                         : 40
Duration                         : 1h 26mn
Bit rate mode                    : Variable
Bit rate                         : 160 Kbps
Maximum bit rate                 : 294 Kbps
Channel(s)                       : 2 channels
Channel positions                : Front: L R
Sampling rate                    : 48.0 KHz
Compression mode                 : Lossy
Stream size                      : 98.7 MiB (7%)
Language                         : English




Plot: When the earth's upper atmosphere is supercharged by a huge solar flare, disaster strikes a solar ion collection research facility, creating massive magnetic vortexes that shoot down to Earth in the form of giant magnetic tornados. 


Actors: Greg Evigan, Sophie Gendron, John MacLaren, Alexis Maitland, Nicole de Boer